<svg width="300" height="300" viewBox="0 0 108 126" fill="none" xmlns="http://www.w3.org/2000/svg">
<path d="M6.39897 119.213C4.24297 119.213 3.61597 117.958 3.61597 116.077C3.61597 115.45 3.69497 114.743 3.79197 113.998C4.26397 110.745 5.41697 108.884 8.19997 108.884C10.082 108.884 11 109.726 11 111.255V112H12.867C12.888 112 12.888 111.314 12.888 111.158C12.888 108.924 11.535 106.805 8.20297 106.805C3.67497 106.805 1.81297 109.265 1.12697 114.087C1.02897 114.734 0.969971 115.338 0.969971 115.983C0.969971 118.825 2.08797 121.41 6.08597 121.41C9.12397 121.41 10.928 119.929 11.986 118.106L10.202 116.905C9.04597 118.728 7.79097 119.213 6.39897 119.213ZM18.65 110.236C15.023 110.236 13.456 112.097 12.927 115.801C12.867 116.234 12.828 116.684 12.828 117.095C12.828 119.486 13.945 121.388 17.041 121.388C20.668 121.388 22.256 119.447 22.785 115.801C22.844 115.331 22.883 114.9 22.883 114.469C22.884 112.039 21.728 110.236 18.65 110.236ZM20.159 115.802C19.767 118.488 18.925 119.311 17.336 119.311C16.063 119.311 15.436 118.782 15.436 117.194C15.436 116.802 15.476 116.332 15.554 115.802C15.946 113.137 16.73 112.314 18.337 112.314C19.631 112.314 20.277 112.843 20.277 114.45C20.277 114.842 20.237 115.293 20.159 115.802ZM32 107L31.393 110.598C31.354 110.911 31.374 110.807 31.492 111.101C30.924 110.67 29.904 110.385 29.218 110.385C25.964 110.385 24.142 111.858 23.554 115.974C23.476 116.464 23.456 116.877 23.456 117.288C23.456 120.288 25.22 121.406 27.591 121.406C28.592 121.406 29.571 121.427 30.335 120.781L30.53 122H32.412L34.607 107H32ZM30.138 118.742C29.257 119.27 28.395 119.389 27.866 119.389C26.435 119.389 26.043 118.644 26.043 117.449C26.043 116.998 26.102 116.47 26.181 115.9C26.631 112.784 27.631 112.234 28.925 112.234C29.767 112.234 30.413 112.372 31.022 112.706L30.138 118.742ZM40.331 110.236C36.743 110.236 35.059 111.94 34.49 115.801C34.43 116.272 34.391 116.723 34.391 117.154C34.391 119.8 35.744 121.388 38.722 121.388C41.035 121.388 42.761 120.427 43.682 118.663L41.702 117.859C41.134 118.721 40.37 119.309 39.017 119.309C37.567 119.309 36.979 118.919 36.979 117.625C36.979 117.37 36.999 116.999 37.038 116.999H44.113C44.212 115.999 44.328 115.292 44.328 114.706C44.328 112.747 43.584 110.236 40.331 110.236ZM41.683 115H37.371C37.803 114 38.527 112.452 40.017 112.452C41.173 112.452 41.742 113.128 41.742 114.284C41.741 114.48 41.723 115 41.683 115ZM51.871 110L52.106 108H46.578L46.344 110H47.794L46.227 120H44.775L44.541 122H50.068L50.304 120H48.853L50.42 110H51.871ZM63.103 113L63.809 111H61.908L60.537 111.283C59.772 110.794 58.733 110.427 57.754 110.427C54.95 110.427 52.56 111.781 52.56 114.859C52.56 115.722 52.873 116.419 53.245 116.89C52.658 117.203 52.148 117.727 52.148 118.434C52.148 118.747 52.265 119.068 52.501 119.361C51.324 120.068 50.601 121.239 50.601 122.61C50.601 125.257 53.364 125.822 55.481 125.822C58.146 125.822 61.322 125.213 61.322 121.822C61.322 120.666 60.597 119.763 58.5 119.371L54.717 118.664C54.286 118.585 54.188 118.448 54.188 118.252C54.188 117.958 54.366 117.802 54.659 117.802L54.914 117.841C55.424 117.958 56.012 118.018 56.619 118.018C59.344 118.018 61.774 116.841 61.774 113.784C61.774 113.352 61.696 113.06 61.5 112.589C61.833 112.746 62.265 113.001 62.44 113.001L63.103 113ZM57.714 121.113C58.458 121.251 58.712 121.525 58.712 122.015C58.712 123.603 57.007 123.799 55.773 123.799C53.891 123.799 53.186 123.349 53.186 122.348C53.186 121.466 53.44 121.055 54.029 120.427L57.714 121.113ZM56.909 115.979C55.772 115.979 55.145 115.568 55.145 114.587C55.145 113.137 55.988 112.294 57.458 112.294C58.634 112.294 59.203 112.784 59.203 113.743C59.203 115.194 58.379 115.979 56.909 115.979ZM70.066 110.236C68.968 110.236 67.989 110.775 66.773 111.734L66.597 111H64.44L62.931 122H65.538L66.675 113.658C67.44 113.188 68.38 112.505 69.184 112.505C70.163 112.505 70.517 112.978 70.517 113.879C70.517 114.095 70.496 114.734 70.457 114.969L69.498 122H72.105L73.064 114.912C73.104 114.58 73.143 114.034 73.143 113.721C73.144 111.857 72.261 110.236 70.066 110.236ZM78.095 119.244L78.115 118.975L79.251 111H74.919L74.646 113H76.546C76.389 113 76.291 113.175 76.272 113.333L75.488 118.644C75.449 118.9 75.43 119.432 75.43 119.646C75.43 121.018 76.174 122 77.702 122H79.035L79.329 120H78.487C78.192 120 78.095 119.479 78.095 119.244ZM79.78 107H77.232C77.075 107 77.075 106.423 77.056 106.619L76.702 109.437C76.682 109.614 76.682 110 76.839 110H79.388C79.545 110 79.545 109.315 79.564 109.137L79.918 106.962C79.938 106.766 79.938 107 79.78 107ZM85.096 119.311C84.45 119.311 84.136 119.036 84.136 118.449L84.156 118.409L84.979 113H87.958L88.859 111H85.253L85.86 106.599L83.117 107.476L82.626 111H81.039L80.765 113H82.607C82.431 114 82.254 113.351 82.235 113.548L81.529 118.291C81.49 118.507 81.49 118.664 81.49 118.859C81.49 120.721 82.862 121.418 84.51 121.418C86.038 121.418 87.273 120.972 88.234 120.167L87.018 118.671C86.409 119.043 85.998 119.311 85.096 119.311ZM94.661 110.236C91.074 110.236 89.389 111.94 88.82 115.801C88.761 116.272 88.722 116.723 88.722 117.154C88.722 119.8 90.074 121.388 93.053 121.388C95.366 121.388 97.092 120.427 98.012 118.663L96.033 117.859C95.465 118.721 94.7 119.309 93.347 119.309C91.898 119.309 91.309 118.919 91.309 117.625C91.309 117.37 91.33 116.999 91.369 116.999H98.444C98.542 115.999 98.66 115.292 98.66 114.706C98.66 112.747 97.915 110.236 94.661 110.236ZM96.014 115H91.702C92.133 114 92.857 112.452 94.348 112.452C95.504 112.452 96.073 113.128 96.073 114.284C96.072 114.48 96.053 115 96.014 115ZM105.873 110.236C104.932 110.236 104.05 110.775 103.168 111.616L103.011 111H100.856L99.346 122H101.973L103.129 113.482C103.815 113.071 104.599 112.72 105.344 112.72C105.815 112.72 106.265 112.645 106.696 112.704L107.031 110.431C106.637 110.353 106.245 110.236 105.873 110.236ZM39.31 99.1211C33.377 96.5571 27.825 90.0391 27.812 83.3701C27.796 76.0991 32.404 69.9261 38.135 65.8691C37.446 68.4721 37.07 70.8531 38.777 73.1811C40.364 75.3461 43.143 76.3981 45.767 75.8271C51.899 74.4851 52.18 67.7441 48.545 63.8171C44.951 59.9281 41.474 55.5351 42.842 49.8951C43.527 47.0681 45.263 44.4201 47.462 42.5271C45.772 46.9691 50.575 51.3501 53.74 53.5321C59.23 57.3181 65.253 60.1791 70.301 64.6171C75.611 69.2811 79.532 75.5881 78.74 82.9021C77.882 90.8301 71.582 96.3441 64.516 99.1281C79.448 95.8321 94.877 84.2431 95.193 67.6821C95.455 54.0581 86.109 43.5731 74.531 37.5701L73.926 37.2401C74.244 38.0111 74.348 38.6671 74.336 39.2541C74.44 38.8211 74.51 38.3761 74.53 37.9171C74.525 38.4881 74.452 39.0271 74.318 39.5331L74.336 39.2541C74.162 39.9891 73.87 40.6721 73.479 41.2971L73.649 41.1141C71.339 44.9451 65.086 45.7771 61.997 41.8101C57.031 35.4291 62.101 28.5491 62.81 21.7921C63.698 13.3231 58.387 5.10213 51.802 0.182129C55.429 6.04913 50.651 13.8111 46.828 18.1501C43.121 22.3571 38.613 25.8691 34.521 29.6911C30.125 33.7961 25.899 38.1201 22.286 42.9381C15.06 52.5811 10.636 64.7091 13.887 76.7401C17.136 88.7621 27.55 96.4151 39.31 99.1211Z" fill="#EE4323"/>
</svg>
